# xmcd CD database file
#
# Track frame offsets:
#	150
#	16927
#	33532
#	52537
#	81000
#	109022
#	131970
#	163440
#	205587
#	225590
#
# Disc length: 3256 seconds
#
# Revision: 5
# Processed by: cddbd v1.5.1PL2 Copyright (c) Steve Scherf et al.
# Submitted via: CDex 1.51
#
DISCID=780cb60a
DTITLE=Julian Sas - Delivered
DYEAR=2002
DGENRE=Blues
TTITLE0=Sugarcup Boogie
TTITLE1=Spellbound Woman
TTITLE2=Home Feeling
TTITLE3=Driftin' Boogie
TTITLE4=Mother Earth
TTITLE5=I Believe To My Soul
TTITLE6=A Light In The Dark
TTITLE7=Ragin' River
TTITLE8=Make My Water
TTITLE9=Roll On
EXTD=YEAR: 2002
EXTT0=
EXTT1=
EXTT2=
EXTT3=
EXTT4=
EXTT5=
EXTT6=
EXTT7=
EXTT8=
EXTT9=
PLAYORDER=
